<mxfile host="Electron" agent="Mozilla/5.0 (Windows NT 10.0; Win64; x64) AppleWebKit/537.36 (KHTML, like Gecko) draw.io/27.0.2 Chrome/134.0.6998.205 Electron/35.3.0 Safari/537.36" version="27.0.2">
  <diagram name="Page-1" id="EAX-awUBmTX7wlH8oMkM">
    <mxGraphModel dx="1042" dy="626" grid="1" gridSize="10" guides="1" tooltips="1" connect="1" arrows="1" fold="1" page="1" pageScale="1" pageWidth="850" pageHeight="1100" math="0" shadow="0">
      <root>
        <mxCell id="0" />
        <mxCell id="1" parent="0" />
        <mxCell id="3AL4u7kh1hlVqpweyAnb-1" value="" style="rounded=1;whiteSpace=wrap;html=1;dashed=1;fillColor=default;strokeColor=light-dark(#808080,#008F00);shadow=1;" parent="1" vertex="1">
          <mxGeometry x="12.46" y="120" width="120" height="480" as="geometry" />
        </mxCell>
        <mxCell id="3AL4u7kh1hlVqpweyAnb-2" value="&lt;font style=&quot;font-size: 22px;&quot;&gt;Sources&lt;/font&gt;" style="rounded=1;whiteSpace=wrap;html=1;strokeColor=none;shadow=1;" parent="1" vertex="1">
          <mxGeometry x="12.46" y="100" width="120" height="30" as="geometry" />
        </mxCell>
        <mxCell id="3AL4u7kh1hlVqpweyAnb-3" value="" style="rounded=0;whiteSpace=wrap;html=1;dashed=1;fillColor=default;strokeColor=light-dark(#808080,#008F00);glass=0;shadow=1;" parent="1" vertex="1">
          <mxGeometry x="160" y="120" width="540" height="480" as="geometry" />
        </mxCell>
        <mxCell id="3AL4u7kh1hlVqpweyAnb-4" value="&lt;font style=&quot;font-size: 22px;&quot;&gt;Data Warehouse&lt;/font&gt;" style="rounded=1;whiteSpace=wrap;html=1;strokeColor=none;shadow=1;" parent="1" vertex="1">
          <mxGeometry x="335" y="100" width="180" height="30" as="geometry" />
        </mxCell>
        <mxCell id="3AL4u7kh1hlVqpweyAnb-8" value="&lt;font style=&quot;font-size: 16px;&quot;&gt;&lt;b&gt;Bronze Layer&lt;/b&gt;&lt;/font&gt;" style="rounded=1;whiteSpace=wrap;html=1;strokeColor=#d79b00;fillColor=#ffe6cc;" parent="1" vertex="1">
          <mxGeometry x="220" y="130" width="120" height="30" as="geometry" />
        </mxCell>
        <mxCell id="3AL4u7kh1hlVqpweyAnb-9" value="" style="rounded=1;whiteSpace=wrap;html=1;strokeColor=#d79b00;fillColor=none;shadow=1;" parent="1" vertex="1">
          <mxGeometry x="200" y="160" width="160" height="420" as="geometry" />
        </mxCell>
        <mxCell id="aymdp2fKDynntIigTYBM-13" value="" style="edgeStyle=orthogonalEdgeStyle;rounded=0;orthogonalLoop=1;jettySize=auto;html=1;entryX=0;entryY=0.5;entryDx=0;entryDy=0;" edge="1" parent="1" source="3AL4u7kh1hlVqpweyAnb-14" target="aymdp2fKDynntIigTYBM-2">
          <mxGeometry relative="1" as="geometry" />
        </mxCell>
        <mxCell id="aymdp2fKDynntIigTYBM-17" style="edgeStyle=orthogonalEdgeStyle;rounded=0;orthogonalLoop=1;jettySize=auto;html=1;entryX=0;entryY=0.5;entryDx=0;entryDy=0;" edge="1" parent="1" source="3AL4u7kh1hlVqpweyAnb-14" target="aymdp2fKDynntIigTYBM-3">
          <mxGeometry relative="1" as="geometry" />
        </mxCell>
        <mxCell id="aymdp2fKDynntIigTYBM-19" style="edgeStyle=orthogonalEdgeStyle;rounded=0;orthogonalLoop=1;jettySize=auto;html=1;entryX=0;entryY=0.75;entryDx=0;entryDy=0;" edge="1" parent="1" source="3AL4u7kh1hlVqpweyAnb-14" target="aymdp2fKDynntIigTYBM-1">
          <mxGeometry relative="1" as="geometry" />
        </mxCell>
        <mxCell id="3AL4u7kh1hlVqpweyAnb-14" value="&lt;b&gt;CRM&lt;/b&gt;" style="image;aspect=fixed;html=1;points=[];align=center;fontSize=12;image=img/lib/azure2/general/Folder_Blank.svg;" parent="1" vertex="1">
          <mxGeometry x="47.82" y="220" width="49.29" height="40" as="geometry" />
        </mxCell>
        <mxCell id="aymdp2fKDynntIigTYBM-14" value="" style="edgeStyle=orthogonalEdgeStyle;rounded=0;orthogonalLoop=1;jettySize=auto;html=1;" edge="1" parent="1" source="3AL4u7kh1hlVqpweyAnb-16" target="aymdp2fKDynntIigTYBM-6">
          <mxGeometry relative="1" as="geometry" />
        </mxCell>
        <mxCell id="aymdp2fKDynntIigTYBM-15" value="" style="edgeStyle=orthogonalEdgeStyle;rounded=0;orthogonalLoop=1;jettySize=auto;html=1;" edge="1" parent="1" source="3AL4u7kh1hlVqpweyAnb-16" target="aymdp2fKDynntIigTYBM-6">
          <mxGeometry relative="1" as="geometry" />
        </mxCell>
        <mxCell id="aymdp2fKDynntIigTYBM-16" style="edgeStyle=orthogonalEdgeStyle;rounded=0;orthogonalLoop=1;jettySize=auto;html=1;entryX=0;entryY=0.5;entryDx=0;entryDy=0;" edge="1" parent="1" source="3AL4u7kh1hlVqpweyAnb-16" target="aymdp2fKDynntIigTYBM-7">
          <mxGeometry relative="1" as="geometry" />
        </mxCell>
        <mxCell id="3AL4u7kh1hlVqpweyAnb-16" value="&lt;b&gt;ERP&lt;/b&gt;" style="image;aspect=fixed;html=1;points=[];align=center;fontSize=12;image=img/lib/azure2/general/Folder_Blank.svg;" parent="1" vertex="1">
          <mxGeometry x="55.63" y="380" width="49.29" height="40" as="geometry" />
        </mxCell>
        <mxCell id="aymdp2fKDynntIigTYBM-11" value="" style="edgeStyle=orthogonalEdgeStyle;rounded=0;orthogonalLoop=1;jettySize=auto;html=1;entryX=0;entryY=0.5;entryDx=0;entryDy=0;" edge="1" parent="1" target="aymdp2fKDynntIigTYBM-5">
          <mxGeometry relative="1" as="geometry">
            <mxPoint x="104.92000000000007" y="400" as="sourcePoint" />
          </mxGeometry>
        </mxCell>
        <mxCell id="aymdp2fKDynntIigTYBM-12" value="" style="edgeStyle=orthogonalEdgeStyle;rounded=0;orthogonalLoop=1;jettySize=auto;html=1;entryX=0;entryY=0.5;entryDx=0;entryDy=0;" edge="1" parent="1" target="aymdp2fKDynntIigTYBM-6">
          <mxGeometry relative="1" as="geometry">
            <mxPoint x="104.92000000000007" y="400" as="sourcePoint" />
          </mxGeometry>
        </mxCell>
        <mxCell id="3AL4u7kh1hlVqpweyAnb-49" value="" style="image;aspect=fixed;perimeter=ellipsePerimeter;html=1;align=center;shadow=0;dashed=0;spacingTop=3;image=img/lib/active_directory/sql_server.svg;" parent="1" vertex="1">
          <mxGeometry x="160" y="70" width="38.5" height="50" as="geometry" />
        </mxCell>
        <mxCell id="aymdp2fKDynntIigTYBM-1" value="crm_cust_info" style="rounded=1;whiteSpace=wrap;html=1;" vertex="1" parent="1">
          <mxGeometry x="222.5" y="210" width="120" height="30" as="geometry" />
        </mxCell>
        <mxCell id="aymdp2fKDynntIigTYBM-2" value="crm_prd_info" style="rounded=1;whiteSpace=wrap;html=1;" vertex="1" parent="1">
          <mxGeometry x="220" y="250" width="120" height="30" as="geometry" />
        </mxCell>
        <mxCell id="aymdp2fKDynntIigTYBM-3" value="crm_sales_details" style="rounded=1;whiteSpace=wrap;html=1;" vertex="1" parent="1">
          <mxGeometry x="220" y="290" width="120" height="30" as="geometry" />
        </mxCell>
        <mxCell id="aymdp2fKDynntIigTYBM-5" value="erp_cust_az12" style="rounded=1;whiteSpace=wrap;html=1;" vertex="1" parent="1">
          <mxGeometry x="222.5" y="365" width="120" height="30" as="geometry" />
        </mxCell>
        <mxCell id="aymdp2fKDynntIigTYBM-6" value="erp_loc_a101" style="rounded=1;whiteSpace=wrap;html=1;" vertex="1" parent="1">
          <mxGeometry x="222.5" y="400" width="120" height="30" as="geometry" />
        </mxCell>
        <mxCell id="aymdp2fKDynntIigTYBM-7" value="erp_px_cat_g1v2" style="rounded=1;whiteSpace=wrap;html=1;" vertex="1" parent="1">
          <mxGeometry x="222.5" y="440" width="120" height="30" as="geometry" />
        </mxCell>
      </root>
    </mxGraphModel>
  </diagram>
</mxfile>
